<svg width="129" height="101" viewBox="0 0 129 101" fill="none" xmlns="http://www.w3.org/2000/svg">
<path d="M15.5 36.5H60.5L63.5 24H76.5L73.5 40.5H41.5L36.5 60.5H68.5L64.5 76.5H51.5L54.5 65H7.5L2 91.5C2 91.5 2.65919 95.0021 4 96.5C5.34081 97.9979 8.5 99 8.5 99H104.5L116 55.5L113.5 51L118.5 45.5L126.5 11.5C126.5 11.5 125.814 7.29703 124.5 5.5C123.186 3.70297 120 2 120 2H31.5C31.5 2 27.4848 2.91754 25.5 4.5C23.5152 6.08246 21.5 10.5 21.5 10.5L15.5 36.5Z" stroke="currentColor" stroke-width="3"/>
</svg>
